<svg xmlns="http://www.w3.org/2000/svg" viewBox="0 0 48 48"><path fill="#90caf9" d="M40 45L8 45 8 3 30 3 40 13z"/><path fill="#e1f5fe" d="M38.5 14L29 14 29 4.5z"/><path fill="#64b5f6" d="M40,26.669l-1.5-1.453l-3.158,3.058l-4.349-0.615l-0.759,4.331l-3.88,2.061L28.284,38l-1.929,3.949 l3.88,2.061L30.408,45H40V26.669z"/><path fill="#fbc02d" d="M38.5,28l-2.469,2.391l-3.402-0.482l-0.594,3.388L29,34.909L30.509,38L29,41.09l3.036,1.612 l0.594,3.388l3.402-0.482L38.5,48l2.469-2.391l3.402,0.482l0.594-3.388L48,41.091L46.491,38L48,34.91l-3.036-1.612l-0.594-3.388 l-3.402,0.482L38.5,28L38.5,28z"/></svg>