<?xml version="1.0" encoding="utf-8"?>
<svg width="320px" height="320px" viewBox="0 0 320 320" version="1.1" xmlns:xlink="http://www.w3.org/1999/xlink" xmlns="http://www.w3.org/2000/svg">
  <defs>
    <path d="M0 0L320 0L320 320L0 320L0 0Z" id="path_1" />
    <clipPath id="mask_1">
      <use xlink:href="#path_1" />
    </clipPath>
  </defs>
  <g id="spice">
    <path d="M0 0L320 0L320 320L0 320L0 0Z" id="背景" fill="#FFFFFF" fill-opacity="0" fill-rule="evenodd" stroke="none" />
    <g clip-path="url(#mask_1)">
      <path d="M228 116L228 100L68 100L68 116C50.327 116 36 130.327 36 148L36 276C36 293.673 50.327 308 68 308L228 308C245.673 308 260 293.673 260 276L260 148C260 130.327 245.673 116 228 116L228 116Z" id="形状" fill="#9BD2F0" stroke="none" />
      <path d="M148 100L228 100L228 116L148 116L148 100Z" id="矩形" fill="#50C3EB" fill-rule="evenodd" stroke="none" />
      <path d="M148 276L36 276C36 293.673 50.327 308 68 308L228 308C245.673 308 260 293.673 260 276L260 148L156 148C151.582 148 148 151.582 148 156L148 276L148 276Z" id="形状" fill="#50C3EB" stroke="none" />
      <path d="M36 180L36 276C36 293.673 50.327 308 68 308L228 308C245.673 308 260 293.673 260 276L260 180L36 180L36 180Z" id="形状" fill="#F04B37" stroke="none" />
      <path d="M148 180L148 276L36 276C36 293.673 50.327 308 68 308L228 308C245.673 308 260 293.673 260 276L260 180L148 180L148 180Z" id="形状" fill="#D7322D" stroke="none" />
      <path d="M92 272C90.976 272 89.953 271.609 89.171 270.829L65.171 246.829C63.609 245.266 63.609 242.734 65.171 241.172C66.734 239.61 69.266 239.61 70.828 241.172L94.828 265.172C96.39 266.735 96.39 269.267 94.828 270.829C94.047 271.609 93.024 272 92 272L92 272Z" id="形状" fill="#D7322D" stroke="none" />
      <path d="M236 240C234.976 240 233.953 239.609 233.171 238.829L209.171 214.829C207.609 213.266 207.609 210.734 209.171 209.172C210.734 207.61 213.266 207.61 214.828 209.172L238.828 233.172C240.39 234.735 240.39 237.267 238.828 238.829C238.047 239.609 237.024 240 236 240L236 240Z" id="形状" fill="#B9140F" stroke="none" />
      <path d="M188 288C186.976 288 185.953 287.609 185.171 286.829C183.609 285.266 183.609 282.734 185.171 281.172L209.171 257.172C210.734 255.61 213.266 255.61 214.828 257.172C216.39 258.735 216.39 261.267 214.828 262.829L190.828 286.829C190.047 287.609 189.024 288 188 288L188 288Z" id="形状" fill="#B9140F" stroke="none" />
      <path d="M228 52L68 52C63.582 52 60 55.582 60 60L60 92C60 96.418 63.582 100 68 100L228 100C232.418 100 236 96.418 236 92L236 60C236 55.582 232.418 52 228 52L228 52Z" id="形状" fill="#FAA037" stroke="none" />
      <path d="M148 100L228 100C232.418 100 236 96.418 236 92L236 60L156 60C151.582 60 148 63.582 148 68L148 100L148 100Z" id="形状" fill="#F57828" stroke="none" />
      <path d="M60 140L60 140C55.582 140 52 143.582 52 148L52 180L68 180L68 148C68 143.582 64.418 140 60 140L60 140Z" id="Group" fill="#D7E6E6" stroke="none" />
      <path d="M52 180L68 180L68 276L52 276L52 180Z" id="Group" fill="#FF6955" fill-rule="evenodd" stroke="none" />
      <path d="M92 224C90.976 224 89.953 223.609 89.171 222.829C87.609 221.266 87.609 218.734 89.171 217.172L113.171 193.172C114.734 191.61 117.266 191.61 118.828 193.172C120.39 194.735 120.39 197.267 118.828 198.829L94.828 222.829C94.047 223.609 93.024 224 92 224L92 224Z" id="Group" fill="#D7322D" stroke="none" />
      <path d="M156 232L124 232C121.791 232 120 230.209 120 228C120 225.791 121.791 224 124 224L156 224C158.209 224 160 225.791 160 228C160 230.209 158.209 232 156 232L156 232Z" id="Group" fill="#D7322D" stroke="none" />
      <g id="编组" transform="translate(180 4)">
        <path d="M0 64C0 28.6538 28.6538 0 64 0C99.3462 0 128 28.6538 128 64C128 99.3462 99.3462 128 64 128C28.6538 128 0 99.3462 0 64Z" id="Group" fill="#D7E6E6" fill-rule="evenodd" stroke="none" />
        <g id="Group" transform="translate(14.039516 9.142858)">
          <path d="M90.7753 57.3069C89.3713 56.4966 87.4954 55.6577 85.3165 54.8571C87.4953 54.0566 89.3713 53.2177 90.7753 52.4074C99.5211 47.3577 102.518 36.1749 97.4685 27.4286C92.4194 18.6823 81.2359 15.6863 72.4896 20.7354C71.0856 21.5457 69.4216 22.7514 67.6388 24.2377C68.0342 21.9509 68.2462 19.9069 68.2462 18.2857C68.2462 8.18686 60.0593 0 49.9605 0C39.8616 0 31.6748 8.18686 31.6748 18.2857C31.6748 19.9069 31.8868 21.9509 32.2828 24.2383C30.4999 22.752 28.8353 21.5463 27.4319 20.736C18.6862 15.6869 7.50276 18.6829 2.45304 27.4291C-2.59668 36.1754 0.399902 47.3583 9.14619 52.408C10.5502 53.2183 12.4262 54.0572 14.6051 54.8577C12.4262 55.6583 10.5502 56.4972 9.14619 57.3074C0.400478 62.3572 -2.5961 73.54 2.45304 82.2863C7.50218 91.0326 18.6856 94.0286 27.4319 88.9794C28.8359 88.1692 30.4999 86.9634 32.2828 85.4766C31.8868 87.7634 31.6748 89.8074 31.6748 91.4286C31.6748 101.527 39.8616 109.714 49.9605 109.714C60.0593 109.714 68.2462 101.527 68.2462 91.4286C68.2462 89.8074 68.0342 87.7634 67.6382 85.476C69.4211 86.9623 71.0856 88.168 72.4891 88.9789C81.2348 94.028 92.4182 91.032 97.4679 82.2857C102.518 73.5394 99.5211 62.3566 90.7753 57.3069L90.7753 57.3069Z" id="形状" fill="#9B5FAA" stroke="none" />
          <path d="M77.1702 56.4903C76.2342 55.9497 74.9816 55.3909 73.5291 54.8571C74.9816 54.3229 76.2342 53.764 77.1702 53.224C83.0011 49.8577 84.9988 42.4023 81.6319 36.5714C78.2656 30.7406 70.8102 28.7429 64.9794 32.1091C64.0434 32.6497 62.9331 33.4549 61.7445 34.4463C62.0085 32.9212 62.1508 31.5571 62.1508 30.476C62.1508 23.7434 56.6931 18.2857 49.9605 18.2857C43.2279 18.2857 37.7702 23.7434 37.7702 30.476C37.7702 31.5566 37.9125 32.9211 38.1765 34.4463C36.9873 33.4549 35.8776 32.6497 34.9416 32.1091C29.1108 28.7429 21.6548 30.7406 18.2885 36.5714C14.9222 42.4023 16.9199 49.8577 22.7508 53.224C23.6868 53.7646 24.9393 54.3234 26.3919 54.8571C24.9394 55.3909 23.6868 55.9497 22.7508 56.4903C16.9199 59.8566 14.9222 67.312 18.2885 73.1429C21.6548 78.9737 29.1102 80.9714 34.9411 77.6051C35.8771 77.0646 36.9873 76.2594 38.1759 75.268C37.9119 76.7932 37.7696 78.1572 37.7696 79.2383C37.7696 85.9709 43.2273 91.4286 49.9599 91.4286C56.6925 91.4286 62.1502 85.9709 62.1502 79.2383C62.1502 78.1577 62.0079 76.7937 61.7439 75.268C62.9331 76.2594 64.0428 77.0646 64.9788 77.6051C70.8097 80.9714 78.2651 78.9737 81.6314 73.1429C84.9988 67.312 83.0011 59.8566 77.1702 56.4903L77.1702 56.4903Z" id="形状" fill="#784687" stroke="none" />
          <path d="M49.9605 93.7143C48.6982 93.7143 47.6748 92.6909 47.6748 91.4286L47.6748 54.8571C47.6748 53.5949 48.6982 52.5714 49.9605 52.5714C51.2228 52.5714 52.2462 53.5949 52.2462 54.8571L52.2462 91.4286C52.2462 92.6909 51.2228 93.7143 49.9605 93.7143L49.9605 93.7143Z" id="形状" fill="#D7322D" stroke="none" />
          <path d="M49.9628 57.1429C49.1725 57.1429 48.4045 56.7331 47.9811 56C47.3496 54.9069 47.7245 53.5091 48.8176 52.8777L80.4896 34.592C81.5839 33.9606 82.981 34.3354 83.6119 35.4286C84.2433 36.5217 83.8685 37.9194 82.7753 38.5509L51.1033 56.8366C50.7433 57.0446 50.3502 57.1429 49.9628 57.1429L49.9628 57.1429Z" id="形状" fill="#D7322D" stroke="none" />
          <path d="M49.9582 57.1429C49.5702 57.1429 49.1776 57.044 48.8176 56.836L17.1456 38.5503C16.0525 37.9194 15.6776 36.5211 16.309 35.428C16.9399 34.3343 18.3376 33.96 19.4313 34.5914L51.1033 52.8772C52.1965 53.508 52.5713 54.9063 51.9399 55.9994C51.5165 56.7332 50.7479 57.1429 49.9582 57.1429L49.9582 57.1429Z" id="形状" fill="#D7322D" stroke="none" />
          <path d="M63.5656 55.6737C61.3428 54.3903 55.5816 52.8971 52.2228 53.5509C54.4685 50.9691 56.0559 45.2331 56.0559 42.6663C56.0559 39.3006 53.3268 36.5714 49.9605 36.5714C46.5942 36.5714 43.8651 39.3006 43.8651 42.6669C43.8651 45.2337 45.4525 50.9697 47.6982 53.5514C44.3394 52.8971 38.5782 54.3909 36.3554 55.6743C33.4399 57.3571 32.4411 61.0851 34.1245 64.0006C35.8079 66.916 39.5354 67.9149 42.4508 66.2314C44.6737 64.948 48.8474 60.7057 49.9605 57.4697C51.0736 60.7057 55.2474 64.948 57.4702 66.2314C60.3856 67.9149 64.1131 66.916 65.7965 64.0006C67.4793 61.0846 66.4805 57.3571 63.5656 55.6737L63.5656 55.6737Z" id="形状" fill="#FABE19" stroke="none" />
        </g>
      </g>
    </g>
  </g>
</svg>